<svg width="100%" height="100%" xmlns="http://www.w3.org/2000/svg" viewBox="0 0 800 600">
	<title>Project Design</title>

	<g>
		<title>Layer 1</title>
		<rect rx="10" id="svg_2" height="450" width="450" y="80.07406" x="303.08327" fill-opacity="null" stroke-width="2" stroke="#00007f" fill="#FF9900"/>
		<text xml:space="preserve" text-anchor="start" font-family="'Courier New', Courier, monospace" font-size="24" id="svg_3" y="99.60143" x="430" fill-opacity="null" stroke-width="0" stroke="#00007f" fill="#000000">Server yg-srv1</text>
		<text transform="matrix(0.934879, 0, 0, 1, 38.081, 0)" xml:space="preserve" text-anchor="start" font-family="'Courier New', Courier, monospace" font-size="24" id="svg_9" y="177.71091" x="585.51007" fill-opacity="0.8" stroke-width="0" stroke="#00007f" fill="#000000"/>
		<path id="svg_25" d="m557.10913,153.75117l149.02563,0l0,119.22118l-74.51294,29.80466l-74.5127,-29.80466l0,-119.22118l0,0z" stroke-opacity="null" stroke-width="2" stroke="#00007f" fill="#00bf00"/>
		<text xml:space="preserve" text-anchor="start" font-family="'Courier New', Courier, monospace" font-size="24" id="svg_10" y="179.76642" x="599.89866" fill-opacity="0.8" stroke-width="0" stroke="#00007f" fill="#000000">Moses</text>
		<path id="svg_23" d="m347.10913,153.75117l149.02567,0l0,119.22118l-74.513,29.80466l-74.51266,-29.80466l0,-119.22118l0,0z" stroke-opacity="null" stroke-width="2" stroke="#00007f" fill="#00bf00"/>
		<text transform="matrix(1, 0, 0, 1, 0, 0)" xml:space="preserve" text-anchor="start" font-family="'Courier New', Courier, monospace" font-size="24" id="svg_11" y="182.84969" x="365.57023" fill-opacity="0.8" stroke-width="0" stroke="#00007f" fill="#000000">Decoder</text>
		<path id="svg_26" d="m457.10913,343.75116l149.02563,0l0,119.22119l-74.51294,29.80463l-74.5127,-29.80463l0,-119.22119l0,0z" stroke-opacity="null" stroke-width="2" stroke="#00007f" fill="#00bf00"/>
		<text transform="matrix(1, 0, 0, 1, 0, 0)" xml:space="preserve" text-anchor="start" font-family="'Courier New', Courier, monospace" font-size="24" id="svg_12" y="364.76256" x="489.92873" fill-opacity="0.8" stroke-width="0" stroke="#00007f" fill="#000000">Flask</text>
		<path id="svg_27" d="m37.10913,343.75116l149.02563,0l0,119.22119l-74.51294,29.80463l-74.5127,-29.80463l0,-119.22119l0,0z" stroke-opacity="null" stroke-width="2" stroke="#00007f" fill="#00bf00"/>
		<text xml:space="preserve" text-anchor="start" font-family="'Courier New', Courier, monospace" font-size="24" id="svg_18" y="360.65154" x="61.35434" fill-opacity="0.8" stroke-width="0" stroke="#00007f" fill="#000000">Browser</text>
		<text xml:space="preserve" text-anchor="start" font-family="'Courier New', Courier, monospace" font-size="24" id="svg_21" y="427.92833" x="241.2117" fill-opacity="0.8" stroke-opacity="null" stroke-width="0" stroke="#00007f" fill="#000000">Port 5000</text>
		<line stroke-linecap="null" stroke-linejoin="null" id="svg_31" y2="438.76102" x2="483.93673" y1="438.76102" x1="163.10222" stroke-opacity="null" stroke-width="2" stroke="#00007f" fill="none"/>
		<line stroke-linecap="null" stroke-linejoin="null" id="svg_32" y2="393.58117" x2="383.04207" y1="266.09795" x1="383.04207" stroke-opacity="null" stroke-width="2" stroke="#00007f" fill="none"/>
		<line stroke-linecap="null" stroke-linejoin="null" id="svg_33" y2="391.48423" x2="475.68438" y1="391.48423" x1="384.06983" stroke-opacity="null" stroke-width="2" stroke="#00007f" fill="none"/>
		<text xml:space="preserve" text-anchor="start" font-family="'Courier New', Courier, monospace" font-size="24" id="svg_37" y="345.23519" x="339.82168" fill-opacity="null" stroke-width="0" stroke="#00007f" fill="#000000">Python</text>
		<line stroke-linecap="null" stroke-linejoin="null" id="svg_55" y2="218.82116" x2="582.6783" y1="218.82116" x1="479.65117" fill-opacity="null" stroke-width="2" stroke="#00007f" fill="none"/>
		<text xml:space="preserve" text-anchor="start" font-family="'Courier New', Courier, monospace" font-size="24" id="svg_56" y="208.5436" x="468.34585" fill-opacity="null" stroke-width="0" stroke="#00007f" fill="#000000">Port 8080</text>
	</g>
</svg>
